<?xml version="1.0" encoding="UTF-8" standalone="no"?>
<!-- Created with Inkscape (http://www.inkscape.org/) -->

<svg
   version="1.0"
   width="100"
   height="125"
   id="svg2429"
   sodipodi:docname="clef_de_fa.svg"
   inkscape:version="1.4.4 (dcaf3e7d9e, 2026-05-05)"
   xmlns:inkscape="http://www.inkscape.org/namespaces/inkscape"
   xmlns:sodipodi="http://sodipodi.sourceforge.net/DTD/sodipodi-0.dtd"
   xmlns="http://www.w3.org/2000/svg"
   xmlns:svg="http://www.w3.org/2000/svg">
  <sodipodi:namedview
     id="namedview1"
     pagecolor="#ffffff"
     bordercolor="#000000"
     borderopacity="0.25"
     inkscape:showpageshadow="2"
     inkscape:pageopacity="0.0"
     inkscape:pagecheckerboard="0"
     inkscape:deskcolor="#d1d1d1"
     inkscape:zoom="2.7064108"
     inkscape:cx="127.65985"
     inkscape:cy="61.890088"
     inkscape:window-width="1920"
     inkscape:window-height="1131"
     inkscape:window-x="0"
     inkscape:window-y="0"
     inkscape:window-maximized="1"
     inkscape:current-layer="svg2429" />
  <defs
     id="defs2432" />
  <path
     d="m 17.907728,97.457161 c 6.147009,-4.150619 10.737803,-7.292689 13.694588,-9.464989 2.956784,-2.13349 6.069207,-4.81007 9.259412,-7.99094 3.190225,-3.18085 5.874665,-6.78841 8.053363,-10.78388 1.711813,-2.948111 3.190205,-6.361714 4.396273,-10.24081 1.206051,-3.840302 1.828534,-7.564234 1.945257,-11.094212 0,-3.297228 -0.427964,-6.439295 -1.322791,-9.387408 -0.855907,-2.986904 -2.334299,-5.430734 -4.435174,-7.409071 -2.100877,-1.939548 -4.824218,-2.909323 -8.208964,-2.909323 -3.268025,0 -6.34153,0.659448 -9.220511,1.939548 -2.840064,1.318894 -4.863139,3.413605 -5.99139,6.361718 0,0.271535 -0.15562,0.620654 -0.389041,1.124936 0.0778,0.620657 0.389041,1.086147 0.972627,1.435266 0.583565,0.349119 1.089348,0.504282 1.556192,0.504282 0.233441,0 0.894827,-0.116372 1.906355,-0.349119 1.05045,-0.232744 1.906357,-0.387907 2.60664,-0.387907 2.061977,0 3.890511,0.737026 5.563424,2.172292 1.634013,1.435263 2.451019,3.180856 2.451019,5.236776 0,1.474058 -0.427942,2.87053 -1.244948,4.150632 -0.817007,1.280102 -1.945257,2.327458 -3.384749,3.064487 -1.439489,0.775818 -3.034602,1.124936 -4.746415,1.124936 -3.112406,0 -5.757966,-0.930981 -7.936644,-2.83174 -2.139775,-1.939546 -3.229125,-4.383376 -3.229125,-7.447863 0,-3.917885 1.206071,-7.292696 3.57927,-10.163225 2.412116,-2.870532 5.446721,-5.004033 9.181612,-6.439301 3.695967,-1.474055 7.430857,-2.172292 11.243566,-2.172292 4.162832,0 8.131163,1.047356 11.827131,3.180859 3.73489,2.094711 6.652771,5.004032 8.831469,8.61159 2.178678,3.646349 3.306926,7.525443 3.306926,11.714866 0,7.447863 -2.489919,14.352652 -7.469778,20.753163 -4.979859,6.40049 -11.126845,11.9476 -18.479923,16.68011 -4.902038,3.21964 -12.838662,7.56423 -23.771006,13.033769 z M 71.94689,37.447567 c 0,-1.396472 0.505763,-2.560203 1.51729,-3.491186 0.972629,-0.969773 2.178698,-1.435264 3.61819,-1.435264 1.244948,0 2.412098,0.543071 3.462546,1.59043 1.050427,1.008561 1.556192,2.211081 1.556192,3.529975 0,1.396474 -0.544665,2.598993 -1.556192,3.568766 -1.089348,0.930984 -2.295398,1.396474 -3.657087,1.396474 -1.439472,0 -2.606643,-0.46549 -3.54035,-1.512846 -0.933727,-1.008564 -1.400589,-2.211084 -1.400589,-3.646349 z m 0,20.326456 c 0,-1.396472 0.505763,-2.598994 1.43949,-3.529975 0.972629,-0.969775 2.178677,-1.435266 3.69599,-1.435266 1.244948,0 2.373198,0.504282 3.462546,1.551638 1.011527,1.047356 1.556192,2.172292 1.556192,3.413603 0,1.512846 -0.505765,2.715368 -1.478392,3.685141 -1.011527,0.969773 -2.178677,1.474058 -3.540346,1.474058 -1.517313,0 -2.723361,-0.504285 -3.69599,-1.435266 -0.933727,-0.930984 -1.43949,-2.172292 -1.43949,-3.723933 z"
     style="fill:#131516;fill-rule:evenodd;stroke:#131516;stroke-width:0.116544"
     id="path1894" />
</svg>
