<?xml version="1.0" encoding="UTF-8" standalone="no"?>
<!-- Created with Inkscape (http://www.inkscape.org/) -->

<svg
   version="1.0"
   width="100"
   height="125"
   id="svg2429"
   sodipodi:docname="clef_de_do.svg"
   inkscape:version="1.4.4 (dcaf3e7d9e, 2026-05-05)"
   xmlns:inkscape="http://www.inkscape.org/namespaces/inkscape"
   xmlns:sodipodi="http://sodipodi.sourceforge.net/DTD/sodipodi-0.dtd"
   xmlns="http://www.w3.org/2000/svg"
   xmlns:svg="http://www.w3.org/2000/svg">
  <sodipodi:namedview
     id="namedview1"
     pagecolor="#ffffff"
     bordercolor="#000000"
     borderopacity="0.25"
     inkscape:showpageshadow="2"
     inkscape:pageopacity="0.0"
     inkscape:pagecheckerboard="0"
     inkscape:deskcolor="#d1d1d1"
     showgrid="false"
     inkscape:zoom="2.8196067"
     inkscape:cx="95.226048"
     inkscape:cy="44.864414"
     inkscape:window-width="1920"
     inkscape:window-height="1131"
     inkscape:window-x="0"
     inkscape:window-y="0"
     inkscape:window-maximized="1"
     inkscape:current-layer="svg2429" />
  <defs
     id="defs2432" />
  <path
     d="M 22.297015,105.06463 V 21.953674 20.115576 h 9.62009 v 83.110944 1.83811 z m 14.46629,0 V 21.953674 20.115576 h 3.07409 v 41.627553 c 1.51896,-0.792905 3.07412,-2.414758 4.59308,-4.973682 1.55511,-2.522881 2.85709,-5.189928 3.86974,-8.037181 1.01264,-2.847254 1.55511,-4.937642 1.62745,-6.307206 0.47016,3.027457 1.22964,5.442218 2.24227,7.280318 1.04883,1.802059 2.16998,3.099542 3.47193,3.892446 1.30198,0.756865 2.56777,1.153318 3.86975,1.153318 3.21875,0 5.24404,-1.441646 6.11201,-4.360983 0.86797,-2.919333 1.30198,-6.487411 1.30198,-10.70423 0,-1.91018 -0.0362,-3.640157 -0.14469,-5.153887 -0.10851,-1.51373 -0.32547,-3.063499 -0.72328,-4.613271 -0.36169,-1.54977 -0.97651,-2.955376 -1.84448,-4.180775 -0.90414,-1.225396 -2.06144,-2.090384 -3.50808,-2.522879 -1.30198,-0.360412 -2.60393,-0.540618 -3.86974,-0.540618 -1.15732,0 -2.13378,0.216248 -2.89326,0.6127 -0.79565,0.396452 -1.22964,1.009154 -1.30196,1.729974 0.18086,0.648739 0.61482,1.405604 1.37428,2.306635 0.75948,0.864988 1.26581,1.549769 1.55513,1.982264 0.28935,0.432494 0.43398,1.045193 0.43398,1.874142 0,1.477688 -0.5063,2.703087 -1.51896,3.712241 -1.01263,1.009152 -2.35075,1.549769 -4.05055,1.549769 -1.66364,0 -3.03794,-0.612699 -4.05057,-1.802058 -1.01266,-1.225399 -1.55514,-2.667047 -1.62748,-4.288901 0.14469,-2.198511 0.94031,-4.108693 2.35078,-5.694504 1.44662,-1.549767 3.21876,-2.739127 5.35254,-3.532033 2.13377,-0.792905 4.26758,-1.189357 6.43753,-1.189357 2.45927,0 4.81003,0.432494 7.05232,1.29748 2.27844,0.864989 4.30373,2.162471 6.0397,3.820362 1.77213,1.693935 3.18258,3.748283 4.19523,6.199083 1.01264,2.414758 1.51894,5.189928 1.51894,8.25343 0,4.252859 -0.79563,7.784892 -2.35076,10.560063 -1.59128,2.811212 -3.61659,4.9016 -6.07584,6.199083 -2.49547,1.297482 -5.13555,2.018305 -7.92032,2.090387 -2.89326,-0.180198 -5.31636,-0.828947 -7.23316,-1.946222 l -3.83359,6.19908 3.83359,6.163044 c 2.64008,-1.081236 5.24404,-1.621854 7.77564,-1.621854 3.21875,0 6.00352,0.93707 8.42664,2.739129 2.38693,1.8381 4.23139,4.180777 5.4972,7.100111 1.22963,2.919336 1.8806,5.910754 1.8806,9.010293 0,3.387872 -0.75946,6.559498 -2.27844,9.478829 -1.51896,2.91934 -3.65274,5.225971 -6.40134,6.991991 -2.78476,1.72998 -5.9312,2.59497 -9.51159,2.59497 -4.15907,-0.1802 -7.631,-1.15332 -10.41577,-2.95538 -2.78477,-1.76602 -4.15904,-4.433071 -4.15904,-7.929061 0.14468,-1.693935 0.75945,-2.991418 1.84443,-3.96453 1.08497,-1.009152 2.24229,-1.51373 3.50808,-1.621854 1.51898,0 2.89328,0.540618 4.08674,1.621854 1.19347,1.045196 1.80829,2.378718 1.80829,3.96453 0,0.612699 -0.14469,1.18936 -0.43399,1.72998 -0.28932,0.50457 -0.68716,1.11727 -1.26581,1.83809 -0.57864,0.68479 -0.97646,1.18936 -1.19346,1.51373 -0.21703,0.36042 -0.39781,0.756871 -0.47016,1.261451 0,0.64874 0.39784,1.18935 1.22964,1.62185 0.79565,0.43249 1.84445,0.68478 3.11026,0.79291 3.97824,-0.1802 6.61834,-1.87415 7.95647,-5.009731 1.30198,-3.207663 1.95297,-7.136153 1.95297,-11.929629 0,-4.144733 -0.47016,-7.784892 -1.41047,-10.884433 -0.94031,-3.135584 -2.9656,-4.685353 -6.14818,-4.685353 -2.82094,0 -4.99089,1.189359 -6.50985,3.640159 -1.51896,2.414758 -2.49545,5.26201 -2.92943,8.541757 -0.47016,-2.775169 -1.19347,-5.442216 -2.24227,-8.001139 -1.04883,-2.594966 -2.2423,-4.865558 -3.65277,-6.811782 -1.33812,-1.910185 -2.82094,-3.459955 -4.3399,-4.54119 v 41.807771 z"
     style="fill:#131516;fill-rule:evenodd;stroke:#131516;stroke-width:0.10831"
     id="path1873" />
</svg>
