<?xml version="1.0" encoding="UTF-8" standalone="no"?>
<!-- Created with Inkscape (http://www.inkscape.org/) -->

<svg
   version="1.0"
   width="100"
   height="125"
   id="svg2429"
   sodipodi:docname="clef_de_sol.svg"
   inkscape:version="1.4.4 (dcaf3e7d9e, 2026-05-05)"
   xmlns:inkscape="http://www.inkscape.org/namespaces/inkscape"
   xmlns:sodipodi="http://sodipodi.sourceforge.net/DTD/sodipodi-0.dtd"
   xmlns="http://www.w3.org/2000/svg"
   xmlns:svg="http://www.w3.org/2000/svg">
  <sodipodi:namedview
     id="namedview1"
     pagecolor="#ffffff"
     bordercolor="#000000"
     borderopacity="0.25"
     inkscape:showpageshadow="2"
     inkscape:pageopacity="0.0"
     inkscape:pagecheckerboard="0"
     inkscape:deskcolor="#d1d1d1"
     inkscape:zoom="5.4128216"
     inkscape:cx="39.073891"
     inkscape:cy="57.918037"
     inkscape:window-width="1920"
     inkscape:window-height="1131"
     inkscape:window-x="0"
     inkscape:window-y="0"
     inkscape:window-maximized="1"
     inkscape:current-layer="svg2429" />
  <defs
     id="defs2432" />
  <path
     d="m 52.415018,67.636287 c -1.495584,0.415795 -2.844088,1.345218 -4.094485,2.763813 -1.250428,1.443051 -1.863387,3.032853 -1.863387,4.74495 0,1.076174 0.367757,2.299101 1.078805,3.595401 0.711018,1.320759 1.789793,2.274642 3.187333,2.886104 0.465846,0.09784 0.686507,0.34242 0.686507,0.684839 0,0.122292 -0.171639,0.244586 -0.588432,0.34242 -2.231144,-0.562547 -4.069989,-1.761014 -5.49204,-3.546486 -1.422036,-1.809929 -2.157565,-3.864444 -2.206602,-6.212462 0.07352,-2.519225 0.833588,-4.867242 2.280166,-7.019591 1.471073,-2.176805 3.358955,-3.717694 5.663646,-4.622658 l -1.691748,-8.682771 c -3.775765,3.130691 -6.840497,6.383669 -9.218751,9.807862 -2.378241,3.399733 -3.604142,7.092967 -3.702202,11.079705 0.04896,1.785471 0.416793,3.522025 1.103301,5.185204 0.686492,1.687639 1.716259,3.204065 3.089258,4.5982 2.770523,2.763811 6.374665,4.206864 10.763404,4.353614 1.495599,-0.09783 3.089257,-0.366876 4.805533,-0.807128 z m 1.765297,-0.244583 3.824817,18.808592 c 3.775764,-1.516427 5.663663,-4.818326 5.663663,-9.856778 -0.22066,-1.687638 -0.711034,-3.204065 -1.544638,-4.549284 -0.809091,-1.369676 -1.887882,-2.445849 -3.26088,-3.228522 -1.373029,-0.782675 -2.917666,-1.174008 -4.682962,-1.174008 z M 49.154121,41.954853 c 0.809108,-0.48917 1.740785,-1.345219 2.746028,-2.543685 1.005241,-1.174008 1.985957,-2.568143 2.917634,-4.133488 0.956221,-1.589803 1.716276,-3.204065 2.280182,-4.842784 0.563906,-1.614261 0.833619,-3.155149 0.833619,-4.573742 0,-0.611462 -0.04896,-1.222927 -0.171638,-1.761012 -0.09808,-0.880508 -0.367773,-1.565343 -0.833604,-2.030056 -0.465863,-0.440253 -1.054294,-0.684838 -1.789824,-0.684838 -1.471073,0 -2.795033,0.904965 -3.971898,2.714894 -0.907183,1.565344 -1.667223,3.424191 -2.206632,5.527621 -0.563907,2.127891 -0.882657,4.231323 -0.931694,6.359213 0.122631,2.421393 0.514899,4.402532 1.127827,5.967877 z m -1.544622,1.418593 c -1.103316,-3.962278 -1.716259,-7.997932 -1.83886,-12.106962 0.02456,-2.641518 0.294224,-5.111828 0.809108,-7.410927 0.490358,-2.299101 1.201375,-4.280241 2.133069,-5.992335 0.907167,-1.712097 1.961446,-3.008398 3.138295,-3.888903 1.054279,-0.782673 1.814334,-1.198467 2.231144,-1.198467 0.318735,0 0.588433,0.122292 0.833603,0.342421 0.245187,0.220125 0.563922,0.587002 0.95619,1.076173 2.91765,4.133487 4.388738,9.123023 4.388738,14.944147 0,2.763813 -0.367771,5.45425 -1.103301,8.144686 -0.711033,2.665975 -1.765312,5.209662 -3.162836,7.582137 -1.422036,2.396932 -3.089259,4.475908 -5.026178,6.261379 l 1.985972,9.636653 c 1.078775,-0.122292 1.814303,-0.220127 2.231113,-0.220127 1.863356,0 3.530593,0.391335 5.07523,1.174009 1.544621,0.782672 2.868598,1.834387 3.947403,3.179605 1.078775,1.32076 1.912409,2.837186 2.500826,4.549284 0.563922,1.712094 0.882641,3.497564 0.882641,5.356412 0,2.886105 -0.760055,5.527625 -2.280165,7.900099 -1.520111,2.372475 -3.800276,4.109029 -6.865039,5.234121 0.196149,1.198467 0.539395,2.935022 1.054264,5.160746 0.490373,2.250181 0.858145,4.035653 1.103331,5.356412 0.245156,1.320761 0.343246,2.592601 0.343246,3.839991 0,1.93222 -0.465847,3.64431 -1.39754,5.16074 -0.956189,1.51643 -2.231128,2.69044 -3.849313,3.52203 -1.593689,0.83158 -3.358955,1.24738 -5.271364,1.24738 -2.696976,0 -5.050719,-0.75822 -7.061203,-2.25018 -2.010453,-1.51643 -3.089242,-3.54649 -3.187317,-6.13909 0.07352,-1.14955 0.34323,-2.22572 0.833603,-3.25298 0.490373,-1.027258 1.152338,-1.858847 2.010468,-2.494768 0.833618,-0.66038 1.838876,-1.002799 2.991214,-1.076175 0.956189,0 1.863341,0.269044 2.721502,0.782673 0.833587,0.538086 1.520094,1.247382 2.034979,2.152349 0.490341,0.904961 0.760054,1.907761 0.760054,2.983941 0,1.44305 -0.490358,2.66597 -1.471073,3.66877 -0.980731,1.0028 -2.231143,1.51643 -3.726743,1.51643 h -0.563921 c 0.956205,1.46751 2.525383,2.22573 4.707459,2.22573 1.103316,0 2.231144,-0.24459 3.358971,-0.68484 1.152337,-0.46472 2.108542,-1.07618 2.91765,-1.85885 0.809062,-0.78267 1.348488,-1.61426 1.569147,-2.49477 0.416794,-1.00279 0.612944,-2.39693 0.612944,-4.13348 0,-1.174014 -0.122632,-2.348023 -0.343246,-3.52203 -0.220676,-1.149551 -0.563906,-2.690437 -1.029783,-4.598201 -0.465816,-1.883306 -0.809062,-3.350815 -1.005212,-4.353614 -1.471088,0.366878 -2.991213,0.562545 -4.584857,0.562545 -2.672463,0 -5.197831,-0.538086 -7.576071,-1.63872 -2.37824,-1.100632 -4.462288,-2.61706 -6.276591,-4.57374 -1.789838,-1.956682 -3.187364,-4.157947 -4.19259,-6.652716 -0.980699,-2.47031 -1.495584,-5.062911 -1.52011,-7.753347 0.09807,-2.494768 0.563922,-4.891701 1.446547,-7.141885 0.88264,-2.274643 2.010483,-4.426992 3.408008,-6.432589 1.397524,-2.005597 2.844087,-3.839983 4.339687,-5.478706 1.520125,-1.614261 3.506067,-3.693233 6.006907,-6.212461 z"
     style="fill:#131516;fill-rule:evenodd;stroke:#131516;stroke-width:0.0734647"
     id="path2538" />
</svg>
